<svg id="Livello_1" data-name="Livello 1" xmlns="http://www.w3.org/2000/svg" xmlns:xlink="http://www.w3.org/1999/xlink" viewBox="0 0 211.75 222.92"><defs><mask id="mask" x="0" y="0" width="211.75" height="222.92" maskUnits="userSpaceOnUse"><g transform="translate(0 -0.77)"><g id="mask-4"><polygon id="path-3" points="0 0.77 211.75 0.77 211.75 223.69 0 223.69 0 0.77" style="fill:#fff;fill-rule:evenodd"/></g></g></mask></defs><g id="Page-1"><g id="Artboard-Copy-8"><g id="Group"><g id="Group-22"><g style="mask:url(#mask)"><path id="Fill-20" d="M170.46,117.93a11.65,11.65,0,0,0-23.3,0H136.72a22.09,22.09,0,0,1,44.18,0Zm-64.59,66.32a40.73,40.73,0,0,1-40.73-40.73H146.6a40.72,40.72,0,0,1-40.73,40.73Zm-52.93-78a11.66,11.66,0,0,0-11.66,11.64H30.85a22.09,22.09,0,0,1,44.17,0H64.59a11.66,11.66,0,0,0-11.65-11.64ZM66,58.6V53.26c0-.37,0-.73.06-1.1a36.9,36.9,0,0,1,2.84-13,40.42,40.42,0,0,1,74-.2,36.82,36.82,0,0,1,2.92,13.21c0,.37.06.74.06,1.12v6.38a52.94,52.94,0,0,0-39.88,51.11h-.09A52.94,52.94,0,0,0,66,59.64Zm145.79,52.46a52.88,52.88,0,0,0-50.29-53V53.26c0-.83-.09-1.63-.13-2.44a49.85,49.85,0,0,0-2.74-13.9C151.29,16,130.47.77,105.87.77S60.44,16,53.16,37a49.28,49.28,0,0,0-2.73,13.87c0,.81-.13,1.61-.13,2.44v4.83A52.88,52.88,0,0,0,0,111.06a31.53,31.53,0,0,0,.24,4.51,52.41,52.41,0,0,0,4.37,16.87c8.53,22,32.75,57.76,101.25,91.25,68.51-33.49,92.73-69.23,101.26-91.25a52.67,52.67,0,0,0,4.37-16.87,31.53,31.53,0,0,0,.24-4.51Z" transform="translate(0 -0.77)" style="fill:#e84672;fill-rule:evenodd"/></g></g></g></g></g></svg>