<svg id="Livello_1" data-name="Livello 1" xmlns="http://www.w3.org/2000/svg" width="1350.37" height="1350.56" viewBox="0 0 1350.37 1350.56">
  <path d="M652.5,0h47c1.3.5,2.5,1.3,3.8,1.4,19.9,1.7,40,2.5,59.7,5.2,22.5,3.1,45,7,67.2,12,49.7,11.1,97.4,28.6,143.1,51,16.6,8.2,32.7,17.5,48.7,26.8a630.39,630.39,0,0,1,112.2,84,678.19,678.19,0,0,1,144.1,191,420.25,420.25,0,0,1,20.1,44.3c10,26.8,19.9,53.7,27.9,81.1,6.5,21.9,10.7,44.6,15,67.1,2.9,15.5,4.7,31.3,6.2,47.1,1.3,12.8,1.5,25.8,2.2,38.7.1.9.9,1.8,1.4,2.8v46c-.5,1.3-1.3,2.5-1.4,3.8-1.7,20.3-2.5,40.6-5.2,60.8-3,22.5-7,45-12,67.2-11.1,49.6-28.5,97.1-50.8,142.7-16.8,34.4-36.3,67.4-59.2,98.1-16.6,22.2-34.4,43.7-53.1,64.3-15.5,17.1-32.5,32.9-49.9,48.1-18.2,15.8-37.2,30.9-56.8,44.9-37.5,26.8-77.5,49.8-120.3,67.1-26.4,10.6-53.1,20.6-80.3,28.8a566.66,566.66,0,0,1-117,22.5c-17,1.4-34,3.5-50.9,3.7-21.6.3-43.2-.5-64.7-1.9-19.6-1.3-39.2-3.2-58.6-6.1a621.75,621.75,0,0,1-93.1-21.5c-48.4-15.1-94.7-34.8-138.7-60.2a676.55,676.55,0,0,1-122-90c-14-13-27.3-26.8-40.1-41-14.3-15.9-28.1-32.2-41.1-49.1a571,571,0,0,1-55.2-86.5c-8.9-17.2-17.2-34.7-25.2-52.4-12.8-28.2-22.7-57.6-30.8-87.4C14.9,818.5,7.5,782.1,4.5,745,3.1,728,1,711.1.8,694.1c-.3-21.6.4-43.2,1.9-64.7,1.4-20.7,4-41.4,6.9-62,4.2-30.8,11.8-61,21-90.6A673.84,673.84,0,0,1,180.4,217.1c13-14,26.8-27.3,41-40.1,15.8-14.1,32-27.8,48.7-40.8a565.6,565.6,0,0,1,84.7-54.5c17.9-9.3,36.2-17.9,54.6-26.3a549.68,549.68,0,0,1,88-30.8c22-5.8,44.3-10.5,66.7-14.8,15.5-3,31.4-4.7,47.1-6.2C624,2.3,637,2.1,649.9,1.4A13.7,13.7,0,0,0,652.5,0ZM629.2,581.8c3-1.2,5.2-2,7.3-3.1,3.5-1.9,6.8-4.1,10.3-6,22-12.5,43.9-25.1,66-37.4,3.4-1.9,4.2-4,4.2-7.5-.1-22.5,0-45-.1-67.4a55.91,55.91,0,0,0-1.6-12.2c-3.9-17.8-16-28.6-31.3-36.9-19.5-10.5-38.7-21.6-58-32.5q-32.25-18.15-64.3-36.5c-16.7-9.5-33.5-18.7-50-28.6-20.7-12.4-41.6-14.1-63-2.4-14.4,7.8-28.6,16-42.9,23.9-19.5,10.8-39.2,21.5-58.7,32.3-27.6,15.4-55,31.1-82.7,46.2-19.1,10.5-28.5,26.5-28.7,47.9-.3,34.7-.2,69.4-.1,104.1.1,37,.3,73.9,1,110.9.2,9.9,4.8,18.7,11.4,26.4,9.5,11.1,22.9,16.2,35,23.1,15.6,9,31.5,17.5,47.3,26.3l67.2,37.5c16.5,9.2,33,18.3,49.3,27.7a60.47,60.47,0,0,0,41.6,7.4c9.7-1.7,18-6.3,26.4-11,18.2-10.2,36.5-20.2,54.7-30.4,23.2-13,46.4-26.2,69.6-39.2q36.15-20.4,72.2-40.6,40.05-22.5,80-45c15.6-8.8,31.3-17.2,46.6-26.4s31.5-13.9,48.7-8.1c10.1,3.4,19.5,8.9,28.9,14q39.6,21.75,79,43.9c19.3,10.9,30.5,26.7,30.4,49.7-.2,33.1,0,66.3-.1,99.4,0,6.1,0,12.3-1.1,18.3-2.1,12.3-7.5,23.3-18.2,30.2-15.3,9.8-31.2,18.6-47,27.7-19.1,11-38.4,21.5-57.3,32.8-16.4,9.8-33.5,11.5-50.8,4.1-11.2-4.8-21.7-11.2-32.4-17.1-22.3-12.3-44.3-25.2-66.8-37.2-21.9-11.7-33.6-29-33.4-54.2.2-20.5.1-41,0-61.5,0-1.7-.2-3.4-.3-5.5-12.5,7-24.1,13.6-35.8,20.1q-23.1,13.05-46.2,26.2c-3.1,1.7-4.7,3.9-4.6,7.9.2,23.1.1,46.3.1,69.4a46.17,46.17,0,0,0,.6,6.4c3.1,19.3,14.8,31.8,31.6,40.6,15.7,8.2,31,17,46.5,25.7q38.1,21.3,76.3,42.6c18.8,10.5,37.8,20.5,56.4,31.3,18.9,11,38.1,11.8,57.2,1.9,17.8-9.1,35-19.4,52.5-29.1,19.5-10.8,39.2-21.5,58.7-32.3,24.9-13.8,49.6-27.9,74.5-41.7,19.2-10.7,29.8-26.9,29.9-49q.3-102.9,0-205.7c0-12.3-3.3-23.9-11.1-33.7-7.1-9-17-14-26.8-19.4q-27.45-15.15-54.7-30.4-36.15-20.25-72.3-40.6c-15-8.4-30.1-16.6-44.9-25.4-20.5-12.3-41.3-14.4-62.6-3-11.8,6.3-23.3,13.2-34.9,19.9-21.5,12.3-43.1,24.7-64.7,36.8q-34.2,19.2-68.5,38.2c-14.5,8-29.1,15.7-43.5,23.9-19.9,11.2-39.6,22.8-59.4,34.1-22.1,12.6-44.4,25-66.4,37.8-14,8.1-28.7,10.6-43.8,4.8-11.5-4.4-22.5-10.4-33.3-16.4-25.8-14.3-51.4-28.7-76.9-43.5-18.1-10.5-28.8-25.9-28.6-47.7.2-36.5,0-72.9.1-109.4,0-19,8.3-33.7,24.2-43.4,15.6-9.6,32.1-17.9,48.1-26.8s32.1-17.2,47.6-26.7c21.7-13.4,43-13,64.8-.7,22.3,12.6,44.8,25,67.1,37.6,11.1,6.2,22.6,11.9,33,19.2,13.1,9.3,20.9,22.6,21.1,39.2.2,15.4.1,30.8.1,46.2C629.2,562.7,629.2,571.6,629.2,581.8Z" transform="translate(-0.73)" style="fill: #614f9c"/>
</svg>
